<svg width="150" height="150" viewBox="0 0 100 100" xmlns="http://www.w3.org/2000/svg">
  <rect width="100" height="100" fill="#16213e"/>
  <g fill="#e9ecef" stroke="#e9ecef" stroke-width="1.5" stroke-linecap="round" stroke-linejoin="round" transform="translate(28, 22) scale(2)">
      <path d="M 9.5,5 C 7.21,5 5.5,6.71 5.5,9 C 5.5,11.29 7.21,13 9.5,13 C 11.79,13 13.5,11.29 13.5,9 C 13.5,6.71 11.79,5 9.5,5 Z" />
      <path d="M 7,16 C 5.8954,16 5,16.8954 5,18 L 5,21 C 5,22.1046 5.8954,23 7,23 L 12,23 C 13.1046,23 14,22.1046 14,21 L 14,18 C 14,16.8954 13.1046,16 12,16 L 7,16 Z" />
      <path d="M 6,26 L 13,26 L 13,28 L 6,28 Z" />
      <path d="M 5,30 L 14,30 L 14,32 L 5,32 Z" />
  </g>
</svg> 